<svg width="61" height="45" viewBox="0 0 61 45" fill="none" xmlns="http://www.w3.org/2000/svg">
<g clip-path="url(#clip0)">
<path fill-rule="evenodd" clip-rule="evenodd" d="M4.10256 0H56.4891C57.5764 0.00260424 58.6184 0.435674 59.3872 1.20449C60.156 1.97331 60.5891 3.0153 60.5917 4.10256V40.8974C60.5878 41.9843 60.1543 43.0255 59.3858 43.7941C58.6173 44.5626 57.576 44.9961 56.4891 45H4.10256C3.0157 44.9961 1.97446 44.5626 1.20592 43.7941C0.437383 43.0255 0.00389795 41.9843 0 40.8974L0 4.10256C0.00260424 3.0153 0.435674 1.97331 1.20449 1.20449C1.97331 0.435674 3.0153 0.00260424 4.10256 0V0ZM43.787 26.8442C43.8569 26.5434 44.0435 26.2827 44.3057 26.1195C44.5679 25.9563 44.8841 25.9039 45.1849 25.9739C45.4857 26.0438 45.7464 26.2304 45.9096 26.4926C46.0728 26.7547 46.1252 27.071 46.0552 27.3718L43.5306 38.1854C43.4606 38.4862 43.274 38.7469 43.0119 38.9101C42.7497 39.0733 42.4334 39.1257 42.1326 39.0557C41.8319 38.9858 41.5712 38.7992 41.408 38.537C41.2447 38.2748 41.1924 37.9586 41.2623 37.6578L43.787 26.8442ZM7.9783 36.1045C7.63044 36.1045 7.29682 35.9663 7.05084 35.7204C6.80486 35.4744 6.66667 35.1408 6.66667 34.7929C6.66667 34.445 6.80486 34.1114 7.05084 33.8654C7.29682 33.6194 7.63044 33.4813 7.9783 33.4813H20.3057C20.478 33.4813 20.6485 33.5152 20.8077 33.5811C20.9668 33.647 21.1114 33.7436 21.2332 33.8654C21.355 33.9872 21.4516 34.1318 21.5175 34.291C21.5834 34.4501 21.6174 34.6207 21.6174 34.7929C21.6174 34.9651 21.5834 35.1357 21.5175 35.2948C21.4516 35.454 21.355 35.5986 21.2332 35.7204C21.1114 35.8422 20.9668 35.9388 20.8077 36.0047C20.6485 36.0706 20.478 36.1045 20.3057 36.1045H7.9783ZM7.9783 27.9142C7.63044 27.9142 7.29682 27.776 7.05084 27.53C6.80486 27.2841 6.66667 26.9504 6.66667 26.6026C6.66667 26.2547 6.80486 25.9211 7.05084 25.6751C7.29682 25.4291 7.63044 25.2909 7.9783 25.2909H29.3984C29.7463 25.2909 30.0799 25.4291 30.3259 25.6751C30.5719 25.9211 30.7101 26.2547 30.7101 26.6026C30.7101 26.9504 30.5719 27.2841 30.3259 27.53C30.0799 27.776 29.7463 27.9142 29.3984 27.9142H7.9783ZM7.9783 19.7239C7.63044 19.7239 7.29682 19.5857 7.05084 19.3397C6.80486 19.0937 6.66667 18.7601 6.66667 18.4122C6.66667 18.0644 6.80486 17.7307 7.05084 17.4848C7.29682 17.2388 7.63044 17.1006 7.9783 17.1006H41.9132C42.2611 17.1006 42.5947 17.2388 42.8407 17.4848C43.0867 17.7307 43.2248 18.0644 43.2248 18.4122C43.2248 18.7601 43.0867 19.0937 42.8407 19.3397C42.5947 19.5857 42.2611 19.7239 41.9132 19.7239H7.9783ZM39.8323 35.503C40.0456 35.7107 40.1711 35.9922 40.1831 36.2896C40.1951 36.5871 40.0927 36.8778 39.8969 37.102C39.7011 37.3262 39.4268 37.4669 39.1305 37.4951C38.8342 37.5232 38.5383 37.4368 38.3037 37.2535L33.8659 33.3826C33.7511 33.2824 33.6572 33.1605 33.5897 33.0239C33.5221 32.8873 33.4821 32.7387 33.472 32.5866C33.4619 32.4345 33.482 32.282 33.5309 32.1377C33.5799 31.9933 33.6569 31.8601 33.7574 31.7456C33.7914 31.7042 33.8294 31.6662 33.8708 31.6322L38.3087 27.7663C38.5402 27.5636 38.8427 27.4611 39.1497 27.4815C39.4567 27.5018 39.7431 27.6433 39.9458 27.8748C40.1485 28.1062 40.2509 28.4088 40.2306 28.7158C40.2102 29.0228 40.0688 29.3091 39.8373 29.5118L36.4201 32.5099L39.8323 35.503ZM49.3097 37.2584C49.1944 37.3587 49.0605 37.4354 48.9156 37.4841C48.7707 37.5327 48.6176 37.5523 48.4652 37.5417C48.3127 37.5312 48.1638 37.4908 48.0269 37.4227C47.8901 37.3546 47.768 37.2602 47.6676 37.145C47.5673 37.0297 47.4906 36.8958 47.442 36.7509C47.3934 36.606 47.3738 36.4529 47.3843 36.3005C47.3948 36.148 47.4353 35.9991 47.5034 35.8623C47.5714 35.7254 47.6658 35.6033 47.7811 35.503L51.1982 32.5099L47.7811 29.5168C47.6664 29.4164 47.5727 29.2944 47.5052 29.1578C47.4378 29.0213 47.3978 28.8727 47.3878 28.7207C47.3777 28.5687 47.3977 28.4162 47.4465 28.2719C47.4954 28.1276 47.5722 27.9943 47.6726 27.8797C47.7729 27.7651 47.8949 27.6713 48.0315 27.6039C48.1681 27.5364 48.3166 27.4965 48.4687 27.4864C48.6207 27.4763 48.7732 27.4963 48.9175 27.5452C49.0618 27.594 49.195 27.6708 49.3097 27.7712L53.7475 31.6371C53.7889 31.6711 53.8269 31.7091 53.8609 31.7505C53.9615 31.865 54.0384 31.9983 54.0874 32.1426C54.1364 32.2869 54.1564 32.4395 54.1463 32.5915C54.1362 32.7436 54.0963 32.8922 54.0287 33.0288C53.9611 33.1654 53.8672 33.2873 53.7525 33.3876L49.3146 37.2584H49.3097ZM58.1854 11.4842H2.60848V41.2968C2.60947 41.4475 2.641 41.5964 2.70117 41.7346C2.76135 41.8727 2.84892 41.9972 2.95858 42.1006C3.06393 42.2062 3.18925 42.2899 3.32724 42.3466C3.46523 42.4033 3.61314 42.432 3.76233 42.431H57.0168C57.166 42.432 57.3139 42.4033 57.4518 42.3466C57.5898 42.2899 57.7152 42.2062 57.8205 42.1006C57.9266 41.9956 58.0105 41.8703 58.0673 41.7322C58.124 41.5942 58.1525 41.4461 58.1509 41.2968V11.4842H58.1854ZM52.5838 4.61045C52.9849 4.60948 53.3772 4.72751 53.7111 4.9496C54.045 5.1717 54.3055 5.48787 54.4597 5.8581C54.6138 6.22833 54.6547 6.63597 54.577 7.02942C54.4994 7.42288 54.3068 7.78445 54.0235 8.06837C53.7403 8.35229 53.3792 8.5458 52.9859 8.6244C52.5927 8.703 52.1849 8.66315 51.8143 8.50991C51.4437 8.35666 51.1269 8.09691 50.904 7.76353C50.6811 7.43014 50.5621 7.03812 50.5621 6.63708C50.5621 6.10044 50.775 5.5857 51.154 5.20578C51.533 4.82585 52.0472 4.61176 52.5838 4.61045ZM38.856 4.61045C39.2568 4.61045 39.6487 4.72931 39.9819 4.952C40.3152 5.17469 40.575 5.49121 40.7284 5.86152C40.8818 6.23184 40.9219 6.63933 40.8437 7.03246C40.7655 7.42558 40.5725 7.78669 40.2891 8.07012C40.0056 8.35355 39.6445 8.54657 39.2514 8.62477C38.8583 8.70296 38.4508 8.66283 38.0805 8.50944C37.7101 8.35605 37.3936 8.09629 37.1709 7.76301C36.9482 7.42974 36.8294 7.03791 36.8294 6.63708C36.8294 6.09959 37.0429 5.58411 37.423 5.20404C37.803 4.82397 38.3185 4.61045 38.856 4.61045ZM45.7199 4.61045C46.1207 4.61045 46.5126 4.72931 46.8459 4.952C47.1791 5.17469 47.4389 5.49121 47.5923 5.86152C47.7457 6.23184 47.7858 6.63933 47.7076 7.03246C47.6294 7.42558 47.4364 7.78669 47.153 8.07012C46.8695 8.35355 46.5084 8.54657 46.1153 8.62477C45.7222 8.70296 45.3147 8.66283 44.9444 8.50944C44.574 8.35605 44.2575 8.09629 44.0348 7.76301C43.8121 7.42974 43.6933 7.03791 43.6933 6.63708C43.6933 6.09959 43.9068 5.58411 44.2869 5.20404C44.6669 4.82397 45.1824 4.61045 45.7199 4.61045Z" fill="#9A00FF"/>
</g>
<defs>
<clipPath id="clip0">
<rect width="60.5917" height="45" fill="white"/>
</clipPath>
</defs>
</svg>
