<svg width="52" height="32" viewBox="0 0 52 32" fill="none" xmlns="http://www.w3.org/2000/svg">
<g clip-path="url(#clip0)">
<path d="M19.8468 25.6246L19.9095 25.6873C20.5795 26.3936 20.9468 27.3345 20.9327 28.3087C20.9187 29.2829 20.5244 30.2128 19.8343 30.8994C19.8343 30.8994 19.7884 30.9537 19.7675 30.9663C19.0676 31.6369 18.1344 32.0076 17.166 31.9998C16.1975 31.992 15.2703 31.6062 14.5813 30.9245C10.5477 27.2183 4.731 22.5584 1.17753 18.6892C0.80185 18.3366 0.503219 17.9098 0.30048 17.4357C0.0977406 16.9617 -0.00470391 16.4507 -0.000387882 15.935C0.00392815 15.4193 0.114911 14.9101 0.325556 14.4396C0.536201 13.969 0.841934 13.5473 1.22346 13.2011C3.48248 10.3943 11.4287 3.93571 14.5855 1.07035C15.2184 0.454042 16.049 0.0826052 16.9295 0.0221075C17.8101 -0.0383901 18.6835 0.215974 19.3945 0.739954C20.1054 1.26393 20.6077 2.02356 20.8122 2.8837C21.0166 3.74384 20.9098 4.64873 20.5108 5.43741C20.4672 5.52788 20.4045 5.60781 20.327 5.67165L9.0528 16.0371C10.8567 17.7898 12.4309 19.0949 14.0051 20.4C16.0467 22.0327 17.9983 23.7754 19.851 25.6204L19.8468 25.6246ZM31.4635 25.6246L31.4009 25.6873C30.7309 26.3936 30.3636 27.3345 30.3776 28.3087C30.3917 29.2829 30.7859 30.2128 31.476 30.8994C31.476 30.8994 31.5219 30.9537 31.5428 30.9663C32.2435 31.6419 33.1803 32.0158 34.1528 32.008C35.1252 32.0001 36.056 31.6112 36.7457 30.9245C40.7794 27.2183 46.596 22.5584 50.1495 18.6892C50.5254 18.3369 50.8244 17.9103 51.0275 17.4364C51.2306 16.9625 51.3334 16.4516 51.3295 15.9359C51.3256 15.4203 51.215 14.911 51.0047 14.4403C50.7944 13.9695 50.489 13.5476 50.1078 13.2011C47.8487 10.3943 39.9025 3.93571 36.7457 1.07035C36.1163 0.437446 35.2812 0.0514887 34.3921 -0.0175204C33.5029 -0.0865296 32.6185 0.16598 31.8993 0.694209C31.1801 1.22244 30.6737 1.9914 30.4719 2.86162C30.2701 3.73184 30.3864 4.64569 30.7996 5.43741C30.8431 5.52677 30.9042 5.60644 30.9791 5.67165L42.2534 16.0371C40.4495 17.7898 38.8711 19.0949 37.301 20.4C35.2594 22.0327 33.3079 23.7754 31.4551 25.6204L31.4635 25.6246Z" fill="#4500E1"/>
</g>
<defs>
<clipPath id="clip0">
<rect width="51.3103" height="32" fill="white"/>
</clipPath>
</defs>
</svg>
