<svg width="50" height="50" viewBox="0 0 50 50" fill="none" xmlns="http://www.w3.org/2000/svg">
<g clip-path="url(#clip0)">
<path fill-rule="evenodd" clip-rule="evenodd" d="M36.5606 35.7452L32.6665 45.733L18.3111 45.541L14.3397 35.7411C17.7536 29.6162 21.2204 22.1437 23.0026 15.6064L24.8947 15.8105L24.8215 33.4259C24.4157 33.5791 24.0776 33.8725 23.8679 34.2534C23.6582 34.6343 23.5907 35.0777 23.6775 35.504C23.7643 35.9304 23.9996 36.3117 24.3413 36.5796C24.683 36.8474 25.1087 36.9843 25.5419 36.9656C25.9751 36.9469 26.3875 36.7739 26.705 36.4775C27.0225 36.1812 27.2244 35.781 27.2743 35.3488C27.3243 34.9166 27.2191 34.4806 26.9776 34.1192C26.7361 33.7578 26.3742 33.4946 25.9567 33.3769L26.0178 15.9249L28.1825 15.8269C29.7694 22.4173 33.2037 29.8652 36.5606 35.7534V35.7452ZM21.7372 0H29.2404C29.3722 -1.09271e-06 29.5027 0.0261155 29.6244 0.0768511C29.7461 0.127587 29.8567 0.201942 29.9497 0.295651C30.0427 0.38936 30.1163 0.500576 30.1664 0.622919C30.2164 0.745261 30.2419 0.87632 30.2414 1.00857V3.45855H42.0741C42.2767 2.88067 42.6063 2.35593 43.0384 1.92323C43.4163 1.54358 43.8651 1.2424 44.3591 1.03691C44.8531 0.831425 45.3825 0.725657 45.9173 0.725657C46.452 0.725657 46.9815 0.831425 47.4755 1.03691C47.9694 1.2424 48.4182 1.54358 48.7961 1.92323C49.1744 2.30246 49.4745 2.7528 49.6793 3.24851C49.8841 3.74421 49.9895 4.27556 49.9895 4.81217C49.9895 5.34878 49.8841 5.88012 49.6793 6.37583C49.4745 6.87153 49.1744 7.32187 48.7961 7.7011C48.418 8.08198 47.9688 8.38419 47.4741 8.59041C46.9793 8.79662 46.4489 8.90277 45.9132 8.90277C45.3775 8.90277 44.8471 8.79662 44.3524 8.59041C43.8576 8.38419 43.4084 8.08198 43.0303 7.7011L42.9571 7.61944C42.5596 7.20301 42.2558 6.70593 42.066 6.1617H35.9624C37.934 7.31232 39.718 8.75967 41.2522 10.4532C44.3092 13.8348 46.332 18.0278 47.079 22.5316H48.7066C49.0303 22.5316 49.3408 22.6607 49.5697 22.8904C49.7987 23.1202 49.9273 23.4317 49.9273 23.7566V29.2732C49.9273 29.5981 49.7987 29.9096 49.5697 30.1394C49.3408 30.3691 49.0303 30.4982 48.7066 30.4982H43.307C42.9833 30.4982 42.6728 30.3691 42.4438 30.1394C42.2149 29.9096 42.0863 29.5981 42.0863 29.2732V23.7566C42.0863 23.4317 42.2149 23.1202 42.4438 22.8904C42.6728 22.6607 42.9833 22.5316 43.307 22.5316H44.5643C43.8396 18.6618 42.0607 15.069 39.4252 12.1519C36.9662 9.4186 33.7797 7.44785 30.2414 6.47203V8.62801C30.2414 8.8948 30.1361 9.15071 29.9485 9.33974C29.7609 9.52877 29.5063 9.63551 29.2404 9.63659H21.7372C21.4745 9.63021 21.2247 9.52127 21.0408 9.33292C20.8569 9.14458 20.7535 8.89169 20.7525 8.62801V6.47611C17.1221 7.48222 13.8672 9.53858 11.3938 12.3887C8.87129 15.2708 7.16172 18.7767 6.44177 22.5439H7.66247C7.98622 22.5439 8.29671 22.673 8.52564 22.9027C8.75456 23.1324 8.88317 23.444 8.88317 23.7689V29.2732C8.88317 29.5981 8.75456 29.9096 8.52564 30.1394C8.29671 30.3691 7.98622 30.4982 7.66247 30.4982H2.23441C1.91066 30.4982 1.60017 30.3691 1.37124 30.1394C1.14232 29.9096 1.01371 29.5981 1.01371 29.2732V23.7566C1.01371 23.4317 1.14232 23.1202 1.37124 22.8904C1.60017 22.6607 1.91066 22.5316 2.23441 22.5316H3.9027C4.65256 18.1528 6.59452 14.0672 9.51387 10.7268C11.1035 8.9182 12.9752 7.38057 15.0559 6.17395H7.92696C7.7238 6.75038 7.39424 7.27366 6.9626 7.70519C6.20113 8.46803 5.16956 8.89717 4.09359 8.8987C3.01762 8.90023 1.98485 8.47403 1.22123 7.71335C0.842904 7.33412 0.542778 6.88378 0.338008 6.38808C0.133238 5.89237 0.0278397 5.36103 0.0278397 4.82442C0.0278397 4.28781 0.133238 3.75646 0.338008 3.26076C0.542778 2.76505 0.842904 2.31471 1.22123 1.93548C1.59913 1.55583 2.04789 1.25465 2.54186 1.04916C3.03583 0.843675 3.56532 0.737907 4.10005 0.737907C4.63478 0.737907 5.16427 0.843675 5.65824 1.04916C6.15221 1.25465 6.60097 1.55583 6.97888 1.93548C7.41469 2.3676 7.74598 2.89422 7.9473 3.47489H20.7525V1.02491C20.7481 0.758102 20.8493 0.500435 21.0339 0.308337C21.2184 0.116238 21.4713 0.00536579 21.7372 0V0ZM32.3166 50H18.3925V47.2152H32.3247V50H32.3166Z" fill="#4361EE"/>
</g>
<defs>
<clipPath id="clip0">
<rect width="50" height="50" fill="white"/>
</clipPath>
</defs>
</svg>
