<svg width="45" height="45" viewBox="0 0 45 45" fill="none" xmlns="http://www.w3.org/2000/svg">
<g clip-path="url(#clip0)">
<path fill-rule="evenodd" clip-rule="evenodd" d="M2.74942 0H42.2453C42.996 0 43.6845 0.323331 44.1825 0.840659L44.1862 0.844463L44.1898 0.848267L44.1935 0.852071C44.6916 1.3732 44.9992 2.08453 44.9992 2.86433V42.1509C44.9992 42.9383 44.6879 43.6534 44.1898 44.1707C43.6918 44.6881 43.0033 45.0114 42.2453 45.0114H2.74942C1.99869 45.0114 1.31021 44.6919 0.808502 44.1707L0.80484 44.1669L0.801178 44.1631L0.797516 44.1593C0.299469 43.6382 -0.00814819 42.9269 -0.00814819 42.1471V2.85672C-0.000823976 2.06932 0.306793 1.35418 0.80484 0.836855C0.834137 0.806424 0.863434 0.775993 0.896393 0.749366C1.38712 0.285292 2.03897 0 2.74942 0ZM24.0922 37.5634C23.5136 37.5634 23.0448 37.0347 23.0448 36.3804C23.0448 35.7261 23.5136 35.1974 24.0922 35.1974H36.9901C37.5688 35.1974 38.0375 35.7261 38.0375 36.3804C38.0375 37.0347 37.5688 37.5634 36.9901 37.5634H24.0922ZM7.62369 37.5634C7.0524 37.5634 6.58731 37.0347 6.58731 36.3804C6.58731 35.7261 7.0524 35.1974 7.62369 35.1974H19.5805C20.1518 35.1974 20.6168 35.7261 20.6168 36.3804C20.6168 37.0347 20.1518 37.5634 19.5805 37.5634H7.62369ZM7.20987 32.3939C6.63858 32.3939 6.17349 31.8652 6.17349 31.2109C6.17349 30.5566 6.63858 30.0279 7.20987 30.0279H19.1667C19.7379 30.0279 20.203 30.5566 20.203 31.2109C20.203 31.8652 19.7379 32.3939 19.1667 32.3939H7.20987ZM24.0922 32.3939C23.5136 32.3939 23.0448 31.8652 23.0448 31.2109C23.0448 30.5566 23.5136 30.0279 24.0922 30.0279H36.9901C37.5688 30.0279 38.0375 30.5566 38.0375 31.2109C38.0375 31.8652 37.5688 32.3939 36.9901 32.3939H24.0922ZM6.44083 13.2261H37.913V26.0262H6.44083V13.2261ZM42.5126 10.2439C42.4247 10.2591 42.3368 10.2667 42.2489 10.2667H2.74942C2.65787 10.2667 2.56998 10.2591 2.48575 10.2439V42.1433C2.48575 42.2194 2.51504 42.2878 2.55899 42.3373L2.56265 42.3411C2.61026 42.3905 2.67252 42.4172 2.74942 42.4172H42.2453C42.3148 42.4172 42.3808 42.3867 42.432 42.3335C42.4796 42.284 42.5126 42.2156 42.5126 42.1395V10.2439ZM18.3537 3.68977C19.3424 3.68977 20.1408 4.52282 20.1408 5.54607C20.1408 6.56931 19.3388 7.40237 18.3537 7.40237C17.3686 7.40237 16.5666 6.56931 16.5666 5.54607C16.5666 4.52282 17.3686 3.68977 18.3537 3.68977ZM12.1024 3.68977C13.0912 3.68977 13.8896 4.52282 13.8896 5.54607C13.8896 6.56931 13.0876 7.40237 12.1024 7.40237C11.1137 7.40237 10.3153 6.56931 10.3153 5.54607C10.3153 4.52282 11.1173 3.68977 12.1024 3.68977ZM5.85489 3.68977C6.84366 3.68977 7.642 4.52282 7.642 5.54607C7.642 6.56931 6.84 7.40237 5.85489 7.40237C4.86612 7.40237 4.06778 6.56931 4.06778 5.54607C4.06778 4.52282 4.86612 3.68977 5.85489 3.68977Z" fill="#F72585"/>
</g>
<defs>
<clipPath id="clip0">
<rect width="45" height="45" fill="white"/>
</clipPath>
</defs>
</svg>
